Simulation
nRows=41
nColumns=15
endheader
time  TH_x TH_y TH_z SC_y  SC_z  SC_x  AC_y  AC_z  AC_x  GH_y  GH_z  GH_yy  EL_x  PS_y
1.95  0.000000  0.000000  0.000000  -33.3623978111561  11.160046129923074  15.173384972684383  62.88619336958722  13.849369398320116  11.33526505546423  49.58404797523581  55.77990452817972  -45.414403742781644  22.3416029455285  0.000000
1.989  0.000000  0.000000  0.000000  -32.999571704236104  10.807529723281082  14.530013973266184  62.84905763636166  13.593858642678748  10.664344928049076  49.86924776317461  54.810717168555115  -44.85616835437879  22.538276985844018  0.000000
2.028  0.000000  0.000000  0.000000  -32.569954809062516  10.407583895642281  13.800731173345703  62.79943487759166  13.315454358837679  9.954547000335229  50.14750126332148  53.69954710522948  -44.17846506859871  22.740706994894612  0.000000
2.067  0.000000  0.000000  0.000000  -32.086625816868036  9.96099455603957  12.998930425766678  62.73965163679052  13.01318620138005  9.216249676859738  50.404328995436856  52.45472599406299  -43.38066234135461  22.942351073740195  0.000000
2.106  0.000000  0.000000  0.000000  -31.565850561867762  9.469453581645224  12.142764854936148  62.668797503331845  12.688847139490889  8.45899702015499  50.62122162528583  51.08778855027177  -42.462349106428434  23.13628021229028  0.000000
2.145  0.000000  0.000000  0.000000  -31.025052480808117  8.931853629123049  11.257315460650364  62.5844446414907  12.346400459924718  7.68578624610574  50.774671990403334  49.612494003497844  -41.42186888407298  23.31583830007773  0.000000
2.184  0.000000  0.000000  0.000000  -30.48344472567213  8.352381704322095  10.379090408477971  62.48632055036491  11.971519559977732  6.892376448818834  50.842317638112206  48.04888047368104  -40.25906065543987  23.4742309484753  0.000000
2.223  0.000000  0.000000  0.000000  -29.9487953164017  7.733317101732558  9.545119041092647  62.373518140966574  11.541734085387553  6.066705682165951  50.795462730131646  46.41522638176387  -38.96738276699405  23.605251983282507  0.000000
2.262  0.000000  0.000000  0.000000  -29.42323225639897  7.07757873471264  8.7559050361676  62.23845627201891  11.06516548683116  5.2163369853728225  50.60630952783967  44.72477119512358  -37.53908153935518  23.709877859773197  0.000000
2.301  0.000000  0.000000  0.000000  -28.921881238708963  6.404669098065262  7.995869658141083  62.076082540307496  10.56679156212557  4.366592495592923  50.270396714487575  42.99439636981056  -35.974672622881144  23.79352808023912  0.000000
2.34  0.000000  0.000000  0.000000  -28.44304404882266  5.729323412567343  7.269029154567202  61.86996009685059  10.060317424330709  3.524453971118074  49.7888508537767  41.23920241585879  -34.276370113618086  23.874521153944105  0.000000
2.379  0.000000  0.000000  0.000000  -27.976629863869533  5.055480593578709  6.57883101269088  61.59830852160132  9.559410174533607  2.680510980728274  49.16047585017222  39.47531968127648  -32.44121781493558  23.973013023179206  0.000000
2.418  0.000000  0.000000  0.000000  -27.505049205446355  4.384836619684593  5.915600110258346  61.23480962550296  9.083981417950074  1.8212312771432544  48.391206106924024  37.7175492709387  -30.477339493048504  24.10726489226199  0.000000
2.457  0.000000  0.000000  0.000000  -27.003508214924437  3.711670878008693  5.2615460608687  60.74704918165442  8.66257329692512  0.9283865985704791  47.49312599381306  35.974790410049025  -28.391022330833177  24.298515704207162  0.000000
2.496  0.000000  0.000000  0.000000  -26.441368594255522  3.0317878598230923  4.591282796171805  60.09882472553915  8.32891889211827  -0.019207186681351428  46.497140270746556  34.253090496853  -26.214312879108824  24.56276865410588  0.000000
2.535  0.000000  0.000000  0.000000  -25.813089387739083  2.34798765555134  3.887528333912475  59.250068274927806  8.112441428668697  -1.0393872481534405  45.46294731033617  32.550654135404024  -23.992374663401787  24.917778487607748  0.000000
2.574  0.000000  0.000000  0.000000  -25.151560411272037  1.6696191646969736  3.1497091806119255  58.181239750878845  8.039123228749133  -2.1618375256854665  44.478004015649915  30.85970984880879  -21.81331006278857  25.35694585015682  0.000000
2.613  0.000000  0.000000  0.000000  -24.5846488594285  1.0368936723324895  2.438905664097094  56.93525597448743  8.048651753037396  -3.3668073528567852  43.53805429346206  29.141798478638147  -19.680840003538975  25.864118284320877  0.000000
2.652  0.000000  0.000000  0.000000  -24.262449443132045  0.5345979816298829  1.857416308065433  55.86005869013732  7.909136333446166  -4.477200031631583  42.1010010507981  27.321593799071408  -17.15744384104405  26.326133078753916  0.000000
2.691  0.000000  0.000000  0.000000  -24.276582141563814  0.28065356200737246  1.4130001179830889  55.29252228214435  7.444611716430153  -5.246568112757993  39.83852647111966  25.437128521937275  -13.980503264442847  26.64629135712906  0.000000
2.73  0.000000  0.000000  0.000000  -24.603771545633244  0.29902315772012467  1.0945187980517246  55.01836945303371  6.717456794817251  -5.6254023118609275  37.41926825068965  23.583980860969056  -10.675270899431176  26.94244874545609  0.000000
2.769  0.000000  0.000000  0.000000  -25.040645271145074  0.47604257062366145  0.894954678034315  54.80195500090163  5.843766975164197  -5.706329656516561  35.19877511487102  21.744993711830887  -7.573519176594498  27.211131529784037  0.000000
2.808  0.000000  0.000000  0.000000  -25.48003845011509  0.7233101929020921  0.773800310756316  54.64913308098903  4.943257356063939  -5.655302587935969  33.26223539744863  19.90138384475742  -4.783316438441105  27.381837970064122  0.000000
2.847  0.000000  0.000000  0.000000  -25.920462127607923  0.9990827742280646  0.7070909951988097  54.50922324550829  4.10783303317248  -5.614702259512067  31.760134254395407  18.0422432569855  -2.448426014909062  27.47893166787861  0.000000
2.886  0.000000  0.000000  0.000000  -26.368655600289944  1.2672726296650418  0.692598029710756  54.39371344453776  3.352412985038491  -5.607615034744834  30.485657966981446  16.161018118856333  -0.40316831373366746  27.479825164665566  0.000000
2.925  0.000000  0.000000  0.000000  -26.8359070952176  1.5107170020945868  0.7396362478149588  54.30946003569525  2.6794376848613104  -5.638807344938036  29.27884816425949  14.273667518524851  1.4948878610118304  27.397002240409194  0.000000
2.964  0.000000  0.000000  0.000000  -27.305198621376974  1.7203115922554824  0.8537095607539887  54.258808443685524  2.0842362390717746  -5.709499338833524  28.055345027962346  12.403040886700634  3.314456740192903  27.24907768559651  0.000000
3.003  0.000000  0.000000  0.000000  -27.76439823588498  1.8961981699879917  1.032634488576523  54.245933721326494  1.559447295006059  -5.800966071522674  26.75308178583497  10.570494421603364  5.109971771141144  27.05234556847757  0.000000
3.042  0.000000  0.000000  0.000000  -28.200172884499665  2.037260954346587  1.2673240486031243  54.26393654284686  1.1062673366554496  -5.913093396793371  25.439267122582322  8.803673355358669  6.806609465579956  26.832468951355285  0.000000
3.081  0.000000  0.000000  0.000000  -28.60199417788558  2.142672405577023  1.549334446539927  54.31067150425346  0.7253697898014052  -6.042079821824049  24.17788438860817  7.125390858726194  8.333477912440861  26.608371785390627  0.000000
3.12  0.000000  0.000000  0.000000  -28.965060334313886  2.213592714602852  1.8663604294018554  54.37827398131255  0.4149988412127517  -6.179604575282589  23.07894251102338  5.5545311933530455  9.56582473494457  26.393974856643105  0.000000
3.159  0.000000  0.000000  0.000000  -29.29128627309958  2.250787899096771  2.2032472745011913  54.46742540074167  0.17649775906389686  -6.328655726272599  22.46829401821956  4.111288282820595  10.164487943378665  26.196951153338116  0.000000
3.198  0.000000  0.000000  0.000000  -29.573790701088953  2.2570631387904108  2.547768846032625  54.569218613438316  0.005891748155660371  -6.482917027042515  22.886921414435676  2.8062177287184404  9.579577048935876  26.025842392192867  0.000000
3.237  0.000000  0.000000  0.000000  -29.811444358212363  2.2350563308503024  2.8875771343757153  54.68161132880436  -0.10052919445125716  -6.640499007193249  26.170131960002713  1.6535285379452742  5.961126402204753  25.886805234868156  0.000000
3.276  0.000000  0.000000  0.000000  -30.003757657208766  2.1865944458633932  3.2111177728285005  54.79995601609857  -0.14910625763653826  -6.796395428767553  42.666959283512774  0.6923812979860298  -11.055715941692082  25.78609734965684  0.000000
3.315  0.000000  0.000000  0.000000  -30.15166014235653  2.11311181342151  3.5089977978769062  54.92237270870168  -0.14645174263110425  -6.947465208906123  138.14890128846176  0.44049749704213925  -107.2512221730102  25.72824309089081  0.000000
3.354  0.000000  0.000000  0.000000  -30.254255096419424  2.017542615886367  3.7725524465602853  55.04449170622659  -0.09831074459001736  -7.090083721387189  169.77677920283472  1.0382619122601775  -139.78513100414557  25.718689065454072  0.000000
3.393  0.000000  0.000000  0.000000  -30.314854768500798  1.9020879485371238  3.9967692763193017  55.16449252069332  -0.007370761114419105  -7.223471084648644  175.45516148294396  1.5762948775382573  -146.54458659227504  25.757130103573797  0.000000
3.432  0.000000  0.000000  0.000000  -30.33586058177142  1.7708623034317323  4.179163192100321  55.28125471696521  0.1258533637539996  -7.344579500863492  177.076117096611  1.9860574016899002  -149.38954241224036  25.841448702500088  0.000000
3.471  0.000000  0.000000  0.000000  -30.32340466582538  1.6280210452862995  4.321443438733469  55.39656101828766  0.3010388415264604  -7.449357743826175  177.44242215585757  2.2711813669716254  -151.07734624229906  25.96455937902873  0.000000
3.51  0.000000  0.000000  0.000000  -30.285667938051947  1.4765890641661477  4.424884295260843  55.51248478638498  0.5186589800967155  -7.534165496314394  177.31252417964367  2.44546339180326  -152.31831230371222  26.120525897657487  0.000000
